<svg width="40" height="41" viewBox="0 0 40 41" fill="none" xmlns="http://www.w3.org/2000/svg">
<path d="M15 14.1279C15 11.8498 16.8468 10.0029 19.125 10.0029C21.4032 10.0029 23.25 11.8498 23.25 14.1279C23.25 16.4061 21.4032 18.2529 19.125 18.2529C16.8468 18.2529 15 16.4061 15 14.1279Z" fill="white"/>
<path d="M12 26.8779C12 22.9429 15.19 19.7529 19.125 19.7529C23.06 19.7529 26.25 22.9429 26.25 26.8779V26.8805C26.25 26.9203 26.2496 26.9603 26.249 26.9999C26.2446 27.2584 26.1074 27.4964 25.8859 27.6298C23.9107 28.819 21.5966 29.5029 19.125 29.5029C16.6534 29.5029 14.3393 28.819 12.3641 27.6298C12.1426 27.4964 12.0054 27.2584 12.001 26.9999C12.0003 26.9593 12 26.9187 12 26.8779Z" fill="white"/>
<path d="M28.5 15.2529C28.5 14.8387 28.1642 14.5029 27.75 14.5029C27.3358 14.5029 27 14.8387 27 15.2529V17.5029H24.75C24.3358 17.5029 24 17.8387 24 18.2529C24 18.6671 24.3358 19.0029 24.75 19.0029H27V21.2529C27 21.6671 27.3358 22.0029 27.75 22.0029C28.1642 22.0029 28.5 21.6671 28.5 21.2529V19.0029H30.75C31.1642 19.0029 31.5 18.6671 31.5 18.2529C31.5 17.8387 31.1642 17.5029 30.75 17.5029H28.5V15.2529Z" fill="white"/>
<circle cx="20" cy="20.4716" r="19.5" stroke="white" stroke-dasharray="5 5"/>
</svg>
