<svg width="16" height="18" viewBox="0 0 16 18" fill="none" xmlns="http://www.w3.org/2000/svg">
<path d="M14.4409 8.17301L11.1589 14.0691C10.5786 15.1117 9.54947 15.8285 8.29794 16.0619C7.04642 16.2954 5.675 16.0263 4.48539 15.3139C3.29577 14.6016 2.38541 13.5042 1.95457 12.2633C1.52372 11.0224 1.60769 9.73954 2.188 8.69701L4.15748 5.15882C4.22045 5.06384 4.32282 5.00078 4.44385 4.98241C4.56489 4.96404 4.69554 4.99174 4.80934 5.05989C4.92315 5.12804 5.0116 5.23156 5.05678 5.34946C5.10196 5.46736 5.1005 5.59085 5.05268 5.6949L3.0832 9.23309C2.84296 9.6457 2.69915 10.1123 2.66015 10.6058C2.62116 11.0993 2.68777 11.6097 2.8561 12.1073C3.02443 12.6049 3.29111 13.0798 3.64059 13.5042C3.99007 13.9286 4.41536 14.2941 4.89167 14.5793C5.36798 14.8645 5.88578 15.0638 6.41488 15.1655C6.94398 15.2672 7.47379 15.2694 7.97344 15.1718C8.47308 15.0742 8.93256 14.8788 9.32508 14.597C9.71761 14.3153 10.0353 13.9528 10.2597 13.5307L13.5417 7.63455C13.6936 7.37675 13.785 7.08477 13.8105 6.77572C13.836 6.46667 13.7952 6.14677 13.6904 5.83477C13.5856 5.52277 13.4189 5.22495 13.2001 4.95877C12.9814 4.69258 12.7149 4.46338 12.4164 4.28462C12.1179 4.10585 11.7933 3.9811 11.4617 3.91769C11.13 3.85428 10.798 3.85348 10.4851 3.91534C10.1722 3.9772 9.88469 4.10047 9.63942 4.27793C9.39414 4.45539 9.19605 4.68347 9.05674 4.94879L6.21243 10.0586C6.09661 10.2667 6.07985 10.5227 6.16584 10.7704C6.25183 11.018 6.43352 11.2371 6.67094 11.3792C6.90836 11.5214 7.18206 11.5751 7.43184 11.5285C7.68162 11.4819 7.88701 11.3389 8.00283 11.1308L10.41 6.80634C10.4358 6.75018 10.4743 6.70142 10.5232 6.66308C10.572 6.62474 10.6302 6.59765 10.694 6.58347C10.7579 6.56928 10.8261 6.56832 10.8943 6.58064C10.9626 6.59296 11.0295 6.6183 11.091 6.65508C11.1524 6.69187 11.207 6.73931 11.2514 6.79448C11.2958 6.84965 11.3291 6.91137 11.3492 6.97581C11.3693 7.04025 11.3758 7.10604 11.3682 7.1691C11.3606 7.23217 11.3391 7.29116 11.3052 7.34242L8.89851 11.666C8.66636 12.0831 8.25467 12.3698 7.754 12.4632C7.25334 12.5566 6.70471 12.449 6.22881 12.164C5.75291 11.879 5.38873 11.44 5.21637 10.9436C5.04402 10.4472 5.07761 9.93398 5.30976 9.51692L8.15358 4.40795C8.34958 4.03805 8.62742 3.72031 8.97086 3.47328C9.3143 3.22624 9.71646 3.05487 10.1539 2.96915C10.5913 2.88344 11.0552 2.8851 11.5185 2.97404C11.9818 3.06299 12.4352 3.23743 12.8523 3.48719C13.2694 3.73695 13.6418 4.05702 13.9477 4.42872C14.2536 4.80042 14.4869 5.21629 14.6341 5.65206C14.7812 6.08784 14.8392 6.53477 14.8047 6.96679C14.7701 7.3988 14.6438 7.80724 14.4329 8.16824L14.4409 8.17301Z" fill="white"/>
</svg>
