<svg width="25" height="24" viewBox="0 0 25 24" fill="none" xmlns="http://www.w3.org/2000/svg">
<path d="M4.06318 0.485989C6.53298 0.165333 9.05114 0 11.6075 0C14.1636 0 16.6815 0.1653 19.151 0.485893C21.4394 0.782967 23.0694 2.70163 23.2051 4.92255C22.8172 4.79302 22.4062 4.70709 21.9762 4.67141C20.3232 4.53421 18.6516 4.46428 16.9642 4.46428C15.2769 4.46428 13.6054 4.5342 11.9524 4.6714C9.14488 4.90441 7.14286 7.27936 7.14286 9.95024V15.052C7.14286 17.0647 8.27938 18.9079 10.0391 19.795L6.88135 22.9527C6.62599 23.2081 6.24196 23.2845 5.90832 23.1463C5.57468 23.0081 5.35714 22.6825 5.35714 22.3214V17.5244C4.92439 17.4781 4.49306 17.427 4.06319 17.3712C1.67222 17.0607 0 14.9801 0 12.6341V5.22307C0 2.87704 1.67221 0.79641 4.06318 0.485989Z" fill="white"/>
<path d="M16.9642 6.24999C15.3263 6.24999 13.704 6.31787 12.1001 6.45099C10.2676 6.60309 8.92857 8.1581 8.92857 9.95024V15.052C8.92857 16.8469 10.2714 18.4027 12.1062 18.5525C13.587 18.6734 15.0834 18.7395 16.5933 18.7488L19.9044 22.0599C20.1597 22.3152 20.5438 22.3916 20.8774 22.2534C21.211 22.1152 21.4286 21.7897 21.4286 21.4285V18.5834C21.5599 18.5736 21.6912 18.5633 21.8223 18.5526C23.6571 18.4029 25 16.847 25 15.0521V9.95025C25 8.15812 23.661 6.6031 21.8285 6.451C20.2245 6.31787 18.6022 6.24999 16.9642 6.24999Z" fill="white"/>
</svg>
