<svg width="48" height="48" viewBox="0 0 48 48" fill="none" xmlns="http://www.w3.org/2000/svg">
<path d="M14 1H34C41.1797 1 47 6.8203 47 14V34C47 41.1797 41.1797 47 34 47H14C6.8203 47 1 41.1797 1 34V14C1 6.8203 6.8203 1 14 1Z" fill="#1C1C1C" stroke="url(#paint0_linear_21_125)" stroke-width="2"/>
<path d="M15.0632 12.486C17.533 12.1653 20.0511 12 22.6075 12C25.1636 12 27.6815 12.1653 30.151 12.4859C32.4394 12.783 34.0694 14.7016 34.2051 16.9225C33.8172 16.793 33.4062 16.7071 32.9762 16.6714C31.3232 16.5342 29.6516 16.4643 27.9642 16.4643C26.2769 16.4643 24.6054 16.5342 22.9524 16.6714C20.1449 16.9044 18.1429 19.2794 18.1429 21.9502V27.052C18.1429 29.0647 19.2794 30.9079 21.0391 31.795L17.8813 34.9527C17.626 35.2081 17.242 35.2845 16.9083 35.1463C16.5747 35.0081 16.3571 34.6825 16.3571 34.3214V29.5244C15.9244 29.4781 15.4931 29.427 15.0632 29.3712C12.6722 29.0607 11 26.9801 11 24.6341V17.2231C11 14.877 12.6722 12.7964 15.0632 12.486Z" fill="white"/>
<path d="M27.9642 18.25C26.3263 18.25 24.704 18.3179 23.1001 18.451C21.2676 18.6031 19.9286 20.1581 19.9286 21.9502V27.052C19.9286 28.8469 21.2714 30.4027 23.1062 30.5525C24.587 30.6734 26.0834 30.7395 27.5933 30.7488L30.9044 34.0599C31.1597 34.3152 31.5438 34.3916 31.8774 34.2534C32.211 34.1152 32.4286 33.7897 32.4286 33.4285V30.5834C32.5599 30.5736 32.6912 30.5633 32.8223 30.5526C34.6571 30.4029 36 28.847 36 27.0521V21.9503C36 20.1581 34.661 18.6031 32.8285 18.451C31.2245 18.3179 29.6022 18.25 27.9642 18.25Z" fill="white"/>
<defs>
<linearGradient id="paint0_linear_21_125" x1="24" y1="0" x2="24" y2="68" gradientUnits="userSpaceOnUse">
<stop stop-color="#FFF500"/>
<stop offset="1" stop-color="#B42BA6"/>
</linearGradient>
</defs>
</svg>
