<svg width="1832" height="1879" viewBox="0 0 1832 1879" fill="none" xmlns="http://www.w3.org/2000/svg">
<path d="M880.876 299C849.397 299 818.474 301.38 788.282 305.979L785.657 304.828C785.397 305.385 785.194 305.979 784.933 306.542C493.133 352.568 270 605.115 270 909.835C270 1247.21 543.493 1520.69 880.867 1520.69C1218.23 1520.69 1491.72 1247.22 1491.72 909.835C1491.73 572.488 1218.24 299.008 880.893 299.008L880.876 299ZM753.657 973.013C744.022 968.211 733.766 964.493 722.96 962.222C723.762 884.211 729.861 806.595 741.266 730.368C777.157 722.926 807.464 700.451 825.6 669.904C913.173 695.186 997.306 735.055 1076.41 787.691C1074.39 793.925 1072.88 800.399 1071.82 807.003C959.002 841.306 851.859 897.306 753.659 973.003L753.657 973.013ZM628.037 1197.03C638.995 1203.91 651.032 1209.14 663.886 1212.51C673.058 1281.51 686.302 1349.45 703.662 1416.04C642.006 1394.4 585.449 1361.83 536.382 1320.6C565.09 1276.65 595.737 1235.42 628.033 1197.02L628.037 1197.03ZM1326.57 841.84C1330.46 841.783 1334.33 841.637 1338.24 841.637C1363.26 841.637 1388.34 843.179 1413.31 845.434C1415.85 866.57 1417.31 888.038 1417.31 909.846C1417.31 942.201 1414.27 973.846 1408.75 1004.65C1378.05 963.574 1345.66 925.022 1311.71 889.246C1319.53 874.882 1324.69 858.867 1326.57 841.84ZM1398.51 769.356C1378.42 768.017 1358.29 767.215 1338.23 767.215C1329.64 767.215 1321.06 767.439 1312.5 767.679C1290.92 726.84 1248.08 698.971 1198.7 698.971C1168.77 698.971 1141.27 709.299 1119.41 726.45C1032.64 668.476 939.914 624.96 843.314 597.466C841.231 558.414 821.809 524.07 792.544 501.892C805.565 458.804 820.284 416.532 836.825 375.382C851.372 374.189 866.033 373.428 880.882 373.428C1128.04 373.413 1336.6 541.508 1398.51 769.362L1398.51 769.356ZM751.78 389.209C741.269 417.751 731.556 446.736 722.608 476.095C720.061 475.944 717.566 475.704 714.977 475.704C658.565 475.704 610.737 512.059 593.379 562.568C550.233 562.604 507.144 566.011 464.409 572.203C536.764 483.141 637.023 417.67 751.783 389.204L751.78 389.209ZM344.433 909.836C344.433 819.159 367.13 733.729 407.001 658.769C467.356 644.852 528.918 637.357 590.641 637.097C601.021 676.649 629.636 708.743 667.068 723.775C655.198 804.368 648.928 886.375 648.428 968.761C601.116 987.756 567.668 1034.01 567.668 1088.13C567.668 1106.6 571.647 1124.17 578.663 1140.04C544.595 1179.81 512.334 1222.58 481.954 1268.06C396.538 1172.99 344.434 1047.41 344.434 909.845L344.433 909.836ZM880.886 1446.26C848.777 1446.26 817.386 1443.27 786.818 1437.84C765.329 1363.53 749.22 1287.29 738.578 1209.56C788.885 1192.09 825.052 1144.36 825.052 1088.12C825.052 1065.19 818.968 1043.66 808.437 1025C893.588 960.905 985.584 912.701 1082.09 881.852C1102.57 925.794 1146.98 956.325 1198.68 956.325C1220.17 956.325 1240.38 950.986 1258.18 941.664C1302.83 988.752 1344.66 1040.86 1383.25 1097.7C1306.94 1301.09 1110.58 1446.26 880.886 1446.26Z" fill="black"/>
<path d="M1633.78 377.915C1625.19 377.465 1612.1 382.099 1605.75 387.87C1600.78 392.335 1524.02 508.29 1520.87 516.078C1516.23 527.575 1519.02 543.802 1527.62 554.9C1540.36 571.409 1569.1 573.242 1583.96 558.537C1590.99 551.455 1664.37 439.598 1668.04 430.153C1673.11 417.246 1670.71 402.902 1661.64 391.902C1655.15 384.105 1643.93 378.421 1633.78 377.915Z" fill="black"/>
<path d="M1224.45 118.522C1215.86 118.972 1203.32 124.949 1197.6 131.354C1193.13 136.313 1128.91 259.656 1126.6 267.731C1123.18 279.651 1127.65 295.497 1137.36 305.634C1151.76 320.721 1180.54 319.54 1193.78 303.362C1200.03 295.584 1261.31 176.67 1263.98 166.893C1267.67 153.526 1263.79 139.512 1253.61 129.521C1246.35 122.444 1234.59 117.964 1224.45 118.522Z" fill="black"/>
<path d="M1723.66 880.001C1716.32 882.668 1711.66 886.535 1651.52 939.468C1591.39 992.668 1591.92 992.135 1591.12 1009.87C1590.72 1017.6 1591.26 1021.2 1593.26 1026C1602.59 1047.47 1627.39 1056.4 1647.79 1045.6C1655.79 1041.33 1765.52 944.402 1769.79 937.735C1786.32 912.268 1767.66 877.735 1737.52 878.001C1732.72 878.001 1726.46 878.935 1723.66 880.001Z" fill="black"/>
<path d="M621.614 304.277C627.086 297.64 631.147 284.361 630.289 275.817C629.655 269.168 582.103 138.491 577.714 131.329C571.235 120.756 556.53 113.348 542.492 113.662C521.641 114.086 503.073 136.098 506.057 156.788C507.567 166.653 553.836 292.174 559.245 300.744C566.604 312.498 579.563 319.1 593.802 318.349C603.927 317.774 615.171 312.135 621.614 304.277Z" fill="black"/>
<path d="M1458 910C1458 1234.31 1199.78 1497 881.5 1497C563.225 1497 305 1234.31 305 910C305 585.691 563.225 323 881.5 323C1199.78 323 1458 585.691 1458 910Z" stroke="white" stroke-width="14"/>
<path d="M115.671 363.258C106.055 370.948 99.7848 385.495 101.079 397.424C102.392 409.773 105.864 414.725 153.51 469.273C178.419 497.701 200.114 522.222 201.702 523.754C206.007 527.529 218.889 532.439 225.57 532.73C234.032 533.195 248.625 527.308 254.584 520.879C265.341 509.466 268.424 494.429 262.929 480.114C260.062 472.645 256.925 468.565 230.581 438.26C159.126 356.289 162.398 359.603 150.903 356.446C138.595 353.03 125.335 355.693 115.671 363.258Z" fill="black"/>
<path d="M25.0475 802.222C21.3141 803.556 16.2475 807.156 11.4475 811.956C5.44747 817.956 3.44747 821.156 1.71414 827.289C-1.08586 836.489 -0.419193 846.356 3.44747 854.889C5.71414 860.089 89.1808 963.956 102.781 978.622C110.914 987.422 119.447 991.156 131.047 991.156C146.381 991.289 159.581 983.289 166.381 969.689C171.181 960.489 171.181 944.622 166.381 935.556C162.247 927.822 70.5141 814.756 63.3141 808.622C53.5808 800.222 37.9808 797.689 25.0475 802.222Z" fill="black"/>
<path d="M739.176 1551.5C721.31 1557.23 709.976 1572.7 710.243 1591.63C710.376 1607.76 719.043 1621.36 733.843 1628.43L741.576 1632.03L734.51 1635.23C724.243 1640.03 719.443 1644.7 714.51 1654.56C708.776 1666.3 708.51 1678.56 713.71 1689.63C718.776 1700.56 732.11 1712.3 739.443 1712.3C743.31 1712.3 741.443 1714.56 736.243 1716.16C728.643 1718.43 717.176 1729.36 713.31 1737.9C708.91 1748.03 709.043 1761.1 713.576 1770.96C718.243 1781.1 723.843 1787.1 733.043 1791.76L740.776 1795.63H913.443H1086.11L1093.18 1792.43C1102.38 1788.3 1112.51 1777.23 1115.44 1768.16C1122.24 1747.9 1111.98 1724.7 1092.64 1716.7C1086.91 1714.43 1085.04 1712.3 1088.51 1712.3C1091.31 1712.3 1100.51 1706.83 1105.18 1702.56C1107.58 1700.16 1111.31 1694.83 1113.44 1690.43C1123.71 1669.9 1113.98 1644.16 1092.24 1634.56C1085.04 1631.5 1085.04 1631.36 1088.91 1630.56C1095.04 1629.36 1105.44 1621.5 1110.38 1614.43C1115.98 1606.3 1117.84 1599.23 1117.18 1588.3C1116.38 1573.36 1108.38 1561.36 1094.38 1553.9L1087.44 1550.3L916.11 1550.03C777.843 1549.9 743.71 1550.16 739.176 1551.5ZM1045.44 1607.23C1054.38 1611.76 1057.84 1617.76 1057.18 1627.63C1056.64 1637.1 1053.18 1642.83 1046.24 1646.16C1042.11 1648.03 1029.04 1648.3 913.043 1648.3H784.51L779.976 1645.23C773.31 1640.83 768.91 1631.23 770.11 1623.5C771.043 1616.7 777.043 1608.96 783.443 1606.16C786.643 1604.7 812.376 1604.43 913.443 1604.3H1039.58L1045.44 1607.23ZM982.11 1698.83C988.51 1701.76 991.31 1704.7 994.11 1711.63C998.776 1722.43 991.843 1736.56 980.376 1740.03C976.51 1741.23 950.243 1741.63 883.976 1741.63C798.11 1741.63 792.51 1741.36 787.31 1739.1C773.443 1732.83 769.71 1715.5 779.843 1704.16C786.91 1696.3 785.576 1696.43 885.443 1696.43C971.31 1696.3 977.043 1696.56 982.11 1698.83Z" fill="black"/>
<path d="M784.11 1811.76C784.11 1812.3 787.576 1816.83 791.843 1822.03C813.576 1848.7 850.643 1869.9 886.776 1876.43C901.176 1878.96 930.243 1878.7 944.11 1875.76C965.71 1871.23 984.376 1863.63 1003.44 1851.23C1012.78 1845.1 1039.71 1819.63 1042.64 1813.9L1044.24 1810.96H914.11C842.643 1810.96 784.11 1811.36 784.11 1811.76Z" fill="black"/>
</svg>
