<svg width="22" height="24" viewBox="0 0 22 24" fill="none" xmlns="http://www.w3.org/2000/svg">
<path fill-rule="evenodd" clip-rule="evenodd" d="M5.27194 5.14286C5.27194 2.30254 7.83648 0 11 0C14.1635 0 16.7281 2.30254 16.7281 5.14286C16.7281 7.98318 14.1635 10.2857 11 10.2857C7.83648 10.2857 5.27194 7.98318 5.27194 5.14286Z" fill="white"/>
<path fill-rule="evenodd" clip-rule="evenodd" d="M0.500142 21.2632C0.598589 16.1321 5.26173 12 11 12C16.7384 12 21.4016 16.1323 21.4999 21.2636C21.5064 21.6039 21.288 21.9154 20.9435 22.0574C17.9153 23.3049 14.547 24 11.0004 24C7.45351 24 4.08487 23.3048 1.0565 22.057C0.711961 21.9151 0.493613 21.6035 0.500142 21.2632Z" fill="white"/>
</svg>
