<svg width="24" height="24" viewBox="0 0 24 24" fill="none" xmlns="http://www.w3.org/2000/svg">
<path fill-rule="evenodd" clip-rule="evenodd" d="M11.7883 0C10.6602 0 9.6975 0.815567 9.51204 1.92831L9.39937 2.60433C9.34175 2.95009 9.09178 3.22963 8.7635 3.35255C8.56382 3.42732 8.36742 3.5088 8.17458 3.59673C7.85549 3.74223 7.48088 3.72139 7.19552 3.51755L6.63753 3.11899C5.71956 2.4633 4.4621 2.56737 3.66442 3.36505L3.36508 3.6644C2.5674 4.46208 2.46333 5.71954 3.11901 6.6375L3.51757 7.19548C3.7214 7.48085 3.74224 7.85546 3.59675 8.17454C3.50882 8.3674 3.42733 8.5638 3.35255 8.76349C3.22964 9.09176 2.9501 9.34173 2.60434 9.39936L1.92831 9.51203C0.815569 9.69749 0 10.6602 0 11.7883V12.2117C0 13.3398 0.815567 14.3025 1.92831 14.488L2.60433 14.6006C2.95009 14.6583 3.22963 14.9082 3.35255 15.2365C3.42732 15.4362 3.5088 15.6326 3.59673 15.8254C3.74222 16.1445 3.72138 16.5191 3.51755 16.8045L3.11896 17.3625C2.46327 18.2805 2.56734 19.5379 3.36502 20.3356L3.66437 20.635C4.46205 21.4326 5.71951 21.5367 6.63747 20.881L7.19548 20.4824C7.48085 20.2786 7.85546 20.2578 8.17455 20.4033C8.3674 20.4912 8.5638 20.5727 8.76349 20.6474C9.09176 20.7704 9.34173 21.0499 9.39936 21.3957L9.51203 22.0717C9.69749 23.1844 10.6602 24 11.7883 24H12.2117C13.3398 24 14.3025 23.1844 14.488 22.0717L14.6006 21.3957C14.6583 21.0499 14.9082 20.7704 15.2365 20.6475C15.4362 20.5727 15.6326 20.4912 15.8254 20.4033C16.1445 20.2578 16.5191 20.2786 16.8045 20.4824L17.3625 20.881C18.2804 21.5367 19.5379 21.4326 20.3356 20.6349L20.6349 20.3356C21.4326 19.5379 21.5367 18.2805 20.881 17.3625L20.4824 16.8045C20.2786 16.5192 20.2578 16.1445 20.4032 15.8255C20.4912 15.6326 20.5727 15.4362 20.6474 15.2365C20.7704 14.9082 21.0499 14.6583 21.3957 14.6006L22.0717 14.488C23.1844 14.3025 24 13.3398 24 12.2117V11.7883C24 10.6602 23.1844 9.6975 22.0717 9.51204L21.3957 9.39937C21.0499 9.34175 20.7704 9.09178 20.6475 8.7635C20.5727 8.56383 20.4912 8.36743 20.4033 8.17459C20.2578 7.8555 20.2786 7.48089 20.4825 7.19552L20.881 6.6375C21.5367 5.71953 21.4327 4.46208 20.635 3.6644L20.3356 3.36505C19.538 2.56737 18.2805 2.4633 17.3625 3.11899L16.8045 3.51757C16.5191 3.7214 16.1445 3.74224 15.8254 3.59675C15.6326 3.50881 15.4362 3.42733 15.2365 3.35255C14.9082 3.22964 14.6583 2.9501 14.6006 2.60434L14.488 1.92831C14.3025 0.815569 13.3398 0 12.2117 0H11.7883ZM12 16.6154C14.549 16.6154 16.6154 14.549 16.6154 12C16.6154 9.45099 14.549 7.38462 12 7.38462C9.45099 7.38462 7.38462 9.45099 7.38462 12C7.38462 14.549 9.45099 16.6154 12 16.6154Z" fill="white"/>
</svg>
