<svg width="24" height="24" viewBox="0 0 24 24" fill="none" xmlns="http://www.w3.org/2000/svg">
<path fill-rule="evenodd" clip-rule="evenodd" d="M10.5 6.1C10.5 5.21634 11.3954 4.5 12.5 4.5C13.6046 4.5 14.5 5.21634 14.5 6.1C14.5 6.98366 13.6046 7.7 12.5 7.7C11.3954 7.7 10.5 6.98366 10.5 6.1ZM10.5 12.5C10.5 11.6163 11.3954 10.9 12.5 10.9C13.6046 10.9 14.5 11.6163 14.5 12.5C14.5 13.3837 13.6046 14.1 12.5 14.1C11.3954 14.1 10.5 13.3837 10.5 12.5ZM10.5 18.9C10.5 18.0163 11.3954 17.3 12.5 17.3C13.6046 17.3 14.5 18.0163 14.5 18.9C14.5 19.7837 13.6046 20.5 12.5 20.5C11.3954 20.5 10.5 19.7837 10.5 18.9Z" fill="#FBFBFB"/>
</svg>
